<svg width="163" height="25" viewBox="0 0 163 25" fill="none" xmlns="http://www.w3.org/2000/svg">
<g clip-path="url(#clip0_1_13)">
<path d="M13.9999 6.5C13.9999 5.96957 13.7892 5.46086 13.4142 5.08579C13.0391 4.71071 12.5304 4.5 11.9999 4.5C11.4695 4.5 10.9608 4.71071 10.5857 5.08579C10.2107 5.46086 9.99994 5.96957 9.99994 6.5C9.99994 8.167 10.6699 9.5 11.9999 10.5H11.9919M11.9919 10.5L19.9629 14.928C20.2749 15.1012 20.5348 15.3548 20.7157 15.6623C20.8967 15.9698 20.992 16.3202 20.9919 16.677V17.5C20.9919 18.0304 20.7812 18.5391 20.4062 18.9142C20.0311 19.2893 19.5224 19.5 18.9919 19.5H4.99194C4.46151 19.5 3.9528 19.2893 3.57773 18.9142C3.20266 18.5391 2.99194 18.0304 2.99194 17.5V16.677C2.99185 16.3202 3.08722 15.9698 3.26815 15.6623C3.44909 15.3548 3.709 15.1012 4.02094 14.928L11.9919 10.5Z" stroke="black" stroke-width="2" stroke-linecap="round" stroke-linejoin="round"/>
</g>
<path d="M42.65 18.105C41.92 18.105 41.26 17.98 40.67 17.73C40.09 17.48 39.63 17.12 39.29 16.65C38.95 16.18 38.775 15.625 38.765 14.985H41.015C41.045 15.415 41.195 15.755 41.465 16.005C41.745 16.255 42.125 16.38 42.605 16.38C43.095 16.38 43.48 16.265 43.76 16.035C44.04 15.795 44.18 15.485 44.18 15.105C44.18 14.795 44.085 14.54 43.895 14.34C43.705 14.14 43.465 13.985 43.175 13.875C42.895 13.755 42.505 13.625 42.005 13.485C41.325 13.285 40.77 13.09 40.34 12.9C39.92 12.7 39.555 12.405 39.245 12.015C38.945 11.615 38.795 11.085 38.795 10.425C38.795 9.805 38.95 9.265 39.26 8.805C39.57 8.345 40.005 7.995 40.565 7.755C41.125 7.505 41.765 7.38 42.485 7.38C43.565 7.38 44.44 7.645 45.11 8.175C45.79 8.695 46.165 9.425 46.235 10.365H43.925C43.905 10.005 43.75 9.71 43.46 9.48C43.18 9.24 42.805 9.12 42.335 9.12C41.925 9.12 41.595 9.225 41.345 9.435C41.105 9.645 40.985 9.95 40.985 10.35C40.985 10.63 41.075 10.865 41.255 11.055C41.445 11.235 41.675 11.385 41.945 11.505C42.225 11.615 42.615 11.745 43.115 11.895C43.795 12.095 44.35 12.295 44.78 12.495C45.21 12.695 45.58 12.995 45.89 13.395C46.2 13.795 46.355 14.32 46.355 14.97C46.355 15.53 46.21 16.05 45.92 16.53C45.63 17.01 45.205 17.395 44.645 17.685C44.085 17.965 43.42 18.105 42.65 18.105ZM60.0106 7.53V18H57.9106V13.545H53.4256V18H51.3256V7.53H53.4256V11.835H57.9106V7.53H60.0106ZM70.0876 18.105C69.1076 18.105 68.2076 17.875 67.3876 17.415C66.5676 16.955 65.9176 16.32 65.4376 15.51C64.9576 14.69 64.7176 13.765 64.7176 12.735C64.7176 11.715 64.9576 10.8 65.4376 9.99C65.9176 9.17 66.5676 8.53 67.3876 8.07C68.2076 7.61 69.1076 7.38 70.0876 7.38C71.0776 7.38 71.9776 7.61 72.7876 8.07C73.6076 8.53 74.2526 9.17 74.7226 9.99C75.2026 10.8 75.4426 11.715 75.4426 12.735C75.4426 13.765 75.2026 14.69 74.7226 15.51C74.2526 16.32 73.6076 16.955 72.7876 17.415C71.9676 17.875 71.0676 18.105 70.0876 18.105ZM70.0876 16.23C70.7176 16.23 71.2726 16.09 71.7526 15.81C72.2326 15.52 72.6076 15.11 72.8776 14.58C73.1476 14.05 73.2826 13.435 73.2826 12.735C73.2826 12.035 73.1476 11.425 72.8776 10.905C72.6076 10.375 72.2326 9.97 71.7526 9.69C71.2726 9.41 70.7176 9.27 70.0876 9.27C69.4576 9.27 68.8976 9.41 68.4076 9.69C67.9276 9.97 67.5526 10.375 67.2826 10.905C67.0126 11.425 66.8776 12.035 66.8776 12.735C66.8776 13.435 67.0126 14.05 67.2826 14.58C67.5526 15.11 67.9276 15.52 68.4076 15.81C68.8976 16.09 69.4576 16.23 70.0876 16.23ZM87.7899 10.77C87.7899 11.33 87.6549 11.855 87.3849 12.345C87.1249 12.835 86.7099 13.23 86.1399 13.53C85.5799 13.83 84.8699 13.98 84.0099 13.98H82.2549V18H80.1549V7.53H84.0099C84.8199 7.53 85.5099 7.67 86.0799 7.95C86.6499 8.23 87.0749 8.615 87.3549 9.105C87.6449 9.595 87.7899 10.15 87.7899 10.77ZM83.9199 12.285C84.4999 12.285 84.9299 12.155 85.2099 11.895C85.4899 11.625 85.6299 11.25 85.6299 10.77C85.6299 9.75 85.0599 9.24 83.9199 9.24H82.2549V12.285H83.9199ZM98.8509 16.005H94.6809L93.9909 18H91.7859L95.5509 7.515H97.9959L101.761 18H99.5409L98.8509 16.005ZM98.2809 14.325L96.7659 9.945L95.2509 14.325H98.2809ZM115.003 7.53V18H112.903V13.545H108.418V18H106.318V7.53H108.418V11.835H112.903V7.53H115.003ZM125.08 18.105C124.1 18.105 123.2 17.875 122.38 17.415C121.56 16.955 120.91 16.32 120.43 15.51C119.95 14.69 119.71 13.765 119.71 12.735C119.71 11.715 119.95 10.8 120.43 9.99C120.91 9.17 121.56 8.53 122.38 8.07C123.2 7.61 124.1 7.38 125.08 7.38C126.07 7.38 126.97 7.61 127.78 8.07C128.6 8.53 129.245 9.17 129.715 9.99C130.195 10.8 130.435 11.715 130.435 12.735C130.435 13.765 130.195 14.69 129.715 15.51C129.245 16.32 128.6 16.955 127.78 17.415C126.96 17.875 126.06 18.105 125.08 18.105ZM125.08 16.23C125.71 16.23 126.265 16.09 126.745 15.81C127.225 15.52 127.6 15.11 127.87 14.58C128.14 14.05 128.275 13.435 128.275 12.735C128.275 12.035 128.14 11.425 127.87 10.905C127.6 10.375 127.225 9.97 126.745 9.69C126.265 9.41 125.71 9.27 125.08 9.27C124.45 9.27 123.89 9.41 123.4 9.69C122.92 9.97 122.545 10.375 122.275 10.905C122.005 11.425 121.87 12.035 121.87 12.735C121.87 13.435 122.005 14.05 122.275 14.58C122.545 15.11 122.92 15.52 123.4 15.81C123.89 16.09 124.45 16.23 125.08 16.23ZM137.248 16.335H140.698V18H135.148V7.53H137.248V16.335ZM147.282 7.53V18H145.182V7.53H147.282ZM151.997 12.75C151.997 11.72 152.227 10.8 152.687 9.99C153.157 9.17 153.792 8.535 154.592 8.085C155.402 7.625 156.307 7.395 157.307 7.395C158.477 7.395 159.502 7.695 160.382 8.295C161.262 8.895 161.877 9.725 162.227 10.785H159.812C159.572 10.285 159.232 9.91 158.792 9.66C158.362 9.41 157.862 9.285 157.292 9.285C156.682 9.285 156.137 9.43 155.657 9.72C155.187 10 154.817 10.4 154.547 10.92C154.287 11.44 154.157 12.05 154.157 12.75C154.157 13.44 154.287 14.05 154.547 14.58C154.817 15.1 155.187 15.505 155.657 15.795C156.137 16.075 156.682 16.215 157.292 16.215C157.862 16.215 158.362 16.09 158.792 15.84C159.232 15.58 159.572 15.2 159.812 14.7H162.227C161.877 15.77 161.262 16.605 160.382 17.205C159.512 17.795 158.487 18.09 157.307 18.09C156.307 18.09 155.402 17.865 154.592 17.415C153.792 16.955 153.157 16.32 152.687 15.51C152.227 14.7 151.997 13.78 151.997 12.75Z" fill="black"/>
<defs>
<clipPath id="clip0_1_13">
<rect width="24" height="24" fill="white" transform="translate(0 0.5)"/>
</clipPath>
</defs>
</svg>
